<?xml version="1.0" standalone="no"?>
<!DOCTYPE svg PUBLIC "-//W3C//DTD SVG 20010904//EN"
 "http://www.w3.org/TR/2001/REC-SVG-20010904/DTD/svg10.dtd">
<svg version="1.0" xmlns="http://www.w3.org/2000/svg"
 width="260.000000pt" height="260.000000pt" viewBox="0 0 260.000000 260.000000"
 preserveAspectRatio="xMidYMid meet">
<metadata>
Created by potrace 1.11, written by Peter Selinger 2001-2013
</metadata>
<g transform="translate(0.000000,260.000000) scale(0.100000,-0.100000)"
fill="#000000" stroke="none">
<path d="M623 2218 c-49 -10 -97 -55 -115 -107 -22 -61 -16 -664 7 -701 2 -3
6 -22 9 -42 8 -48 51 -162 81 -214 29 -49 93 -117 152 -162 65 -51 178 -95
303 -121 l55 -11 -3 -232 c-3 -243 0 -269 42 -317 72 -82 232 -63 281 35 19
35 21 62 24 235 1 106 3 216 4 243 l2 50 96 36 c274 103 447 289 533 572 44
143 66 296 71 488 3 134 -20 185 -99 221 -53 24 -127 18 -176 -15 -56 -37 -70
-76 -75 -218 -3 -68 -7 -134 -10 -148 -3 -14 -7 -43 -10 -65 -19 -158 -88
-325 -172 -411 -48 -50 -103 -94 -120 -94 -11 0 -7 565 5 653 15 116 9 209
-16 245 -36 50 -84 74 -152 74 -49 1 -67 -4 -99 -27 -74 -51 -87 -124 -91
-505 -2 -241 -6 -434 -9 -468 -3 -32 -156 23 -211 75 -35 32 -66 100 -75 163
-3 25 -9 59 -12 75 -5 26 -5 219 -1 490 1 58 -3 90 -16 117 -31 65 -120 102
-203 86z"/>
</g>
</svg>
